<svg version="1.1" xmlns="http://www.w3.org/2000/svg" xmlns:xlink="http://www.w3.org/1999/xlink" width="19" height="19" viewBox="0,0,256,256"><g fill="#3dcfb6" fill-rule="nonzero" stroke="none" stroke-width="1" stroke-linecap="butt" stroke-linejoin="miter" stroke-miterlimit="10" stroke-dasharray="" stroke-dashoffset="0" font-family="none" font-weight="none" font-size="none" text-anchor="none" style="mix-blend-mode: normal"><g transform="translate(5.19882,5.78826) scale(13.47368,13.47368)"><path d="M16.105,9.74506h-15.43833c-0.18978,0 -0.34833,-0.06367 -0.47567,-0.191c-0.12733,-0.12733 -0.191,-0.28589 -0.191,-0.47567c0,-0.18977 0.06367,-0.34833 0.191,-0.47566c0.12733,-0.12734 0.28589,-0.191 0.47567,-0.191h15.43833l-7.251,-7.25134c-0.13,-0.12977 -0.198,-0.28277 -0.204,-0.459c-0.006,-0.176 0.06456,-0.33756 0.21167,-0.48467c0.14689,-0.14178 0.30411,-0.214 0.47166,-0.21667c0.16756,-0.00244 0.32478,0.06978 0.47167,0.21667l8.1077,8.10766c0.1164,0.11645 0.1981,0.23534 0.245,0.35667c0.0471,0.12133 0.0706,0.25378 0.0706,0.39733c0,0.14356 -0.0235,0.276 -0.0706,0.39734c-0.0469,0.12133 -0.1286,0.24022 -0.245,0.35666l-8.1077,8.10771c-0.12467,0.1246 -0.27633,0.1913 -0.455,0.2c-0.17867,0.0084 -0.34144,-0.0583 -0.48833,-0.2c-0.14711,-0.1472 -0.22067,-0.3057 -0.22067,-0.4757c0,-0.1702 0.07356,-0.3288 0.22067,-0.4757z"></path></g></g></svg>