<svg version="1.1" xmlns="http://www.w3.org/2000/svg" xmlns:xlink="http://www.w3.org/1999/xlink" width="19" height="19" viewBox="0,0,256,256"><g fill="#3dcfb6" fill-rule="nonzero" stroke="none" stroke-width="1" stroke-linecap="butt" stroke-linejoin="miter" stroke-miterlimit="10" stroke-dasharray="" stroke-dashoffset="0" font-family="none" font-weight="none" font-size="none" text-anchor="none" style="mix-blend-mode: normal"><g transform="translate(5.19882,5.78855) scale(13.47368,13.47368)"><path d="M2.12333,9.72904l7.251,7.25136c0.13,0.1298 0.198,0.2828 0.204,0.459c0.006,0.176 -0.06455,0.3375 -0.21166,0.4846c-0.14689,0.1418 -0.30411,0.214 -0.47167,0.2167c-0.16755,0.0025 -0.32478,-0.0698 -0.47167,-0.2167l-8.10766,-8.10762c-0.11644,-0.11645 -0.19811,-0.23533 -0.245,-0.35667c-0.04711,-0.12133 -0.07067,-0.25378 -0.07067,-0.39733c0,-0.14356 0.02356,-0.276 0.07067,-0.39734c0.04689,-0.12133 0.12856,-0.24022 0.245,-0.35666l8.10766,-8.10767c0.12467,-0.12467 0.27634,-0.19133 0.455,-0.2c0.17867,-0.00844 0.34145,0.05822 0.48834,0.2c0.14711,0.14711 0.22066,0.30566 0.22066,0.47567c0,0.17022 -0.07355,0.32878 -0.22066,0.47566l-7.24334,7.24367h15.43837c0.1897,0 0.3483,0.06367 0.4756,0.191c0.1274,0.12734 0.191,0.28589 0.191,0.47567c0,0.18978 -0.0636,0.34833 -0.191,0.47566c-0.1273,0.12734 -0.2859,0.191 -0.4756,0.191z"></path></g></g></svg>