<svg version="1.1" xmlns="http://www.w3.org/2000/svg" xmlns:xlink="http://www.w3.org/1999/xlink" width="18" height="18" viewBox="0,0,256,256"><g fill="#3dcfb6" fill-rule="nonzero" stroke="none" stroke-width="1" stroke-linecap="butt" stroke-linejoin="miter" stroke-miterlimit="10" stroke-dasharray="" stroke-dashoffset="0" font-family="none" font-weight="none" font-size="none" text-anchor="none" style="mix-blend-mode: normal"><g transform="translate(1.08729,1.08748) scale(14.22222,14.22222)"><path d="M8.93957,10.3615l-7.1845,7.1845c-0.213,0.2127 -0.449,0.3127 -0.708,0.3c-0.259,-0.013 -0.49484,-0.1258 -0.7075,-0.3385c-0.21267,-0.2127 -0.319,-0.455 -0.319,-0.727c0,-0.2717 0.10633,-0.514 0.319,-0.727l7.146,-7.146l-7.1845,-7.1345c-0.21267,-0.213 -0.31267,-0.45533 -0.3,-0.727c0.013,-0.27166 0.12583,-0.514 0.3385,-0.727c0.21267,-0.21267 0.455,-0.319 0.727,-0.319c0.27166,0 0.514,0.10633 0.727,0.319l7.146,7.1845l7.13453,-7.1845c0.213,-0.21267 0.449,-0.319 0.708,-0.319c0.259,0 0.4948,0.10633 0.7075,0.319c0.2206,0.22067 0.331,0.46483 0.331,0.7325c0,0.268 -0.1104,0.5085 -0.331,0.7215l-7.146,7.1345l7.1845,7.1845c0.2126,0.213 0.319,0.449 0.319,0.708c0,0.259 -0.1064,0.4948 -0.319,0.7075c-0.2207,0.2207 -0.4649,0.331 -0.7325,0.331c-0.268,0 -0.5085,-0.1103 -0.7215,-0.331z"></path></g></g></svg>